<svg xmlns="http://www.w3.org/2000/svg" version="1.1" xmlns:xlink="http://www.w3.org/1999/xlink" xmlns:svgjs="http://svgjs.dev/svgjs" width="1440" height="560" preserveAspectRatio="none" viewBox="0 0 1440 560"><g mask="url(&quot;#SvgjsMask1000&quot;)" fill="none"><rect width="1440" height="560" x="0" y="0" fill="#0e2a47"></rect><path d="M-78.92 343.03L-78.92 343.03" stroke="#132e65" stroke-width="1.5"></path><path d="M-78.92 343.03L50.7 378.06" stroke="#132e65" stroke-width="1.5"></path><path d="M-78.92 343.03L-88.34 552.96" stroke="#132e65" stroke-width="1.5"></path><path d="M-78.92 343.03L82.47 512.78" stroke="#132e65" stroke-width="1.5"></path><path d="M-78.92 343.03L243.14 348.68" stroke="#132e65" stroke-width="1.5"></path><path d="M-88.34 552.96L-88.34 552.96" stroke="#132e65" stroke-width="1.5"></path><path d="M-88.34 552.96L-69.57 695.64" stroke="#132e65" stroke-width="1.5"></path><path d="M-88.34 552.96L60.97 642.39" stroke="#132e65" stroke-width="1.5"></path><path d="M-88.34 552.96L82.47 512.78" stroke="#132e65" stroke-width="1.5"></path><path d="M-88.34 552.96L50.7 378.06" stroke="#132e65" stroke-width="1.5"></path><path d="M-69.57 695.64L-69.57 695.64" stroke="#132e65" stroke-width="1.5"></path><path d="M-69.57 695.64L60.97 642.39" stroke="#132e65" stroke-width="1.5"></path><path d="M50.7 378.06L50.7 378.06" stroke="#132e65" stroke-width="1.5"></path><path d="M50.7 378.06L82.47 512.78" stroke="#132e65" stroke-width="1.5"></path><path d="M50.7 378.06L243.14 348.68" stroke="#132e65" stroke-width="1.5"></path><path d="M82.47 512.78L82.47 512.78" stroke="#132e65" stroke-width="1.5"></path><path d="M82.47 512.78L201.04 551.51" stroke="#132e65" stroke-width="1.5"></path><path d="M60.97 642.39L60.97 642.39" stroke="#132e65" stroke-width="1.5"></path><path d="M60.97 642.39L82.47 512.78" stroke="#132e65" stroke-width="1.5"></path><path d="M243.14 348.68L243.14 348.68" stroke="#132e65" stroke-width="1.5"></path><path d="M243.14 348.68L373.82 397.33" stroke="#132e65" stroke-width="1.5"></path><path d="M243.14 348.68L340.31 520.01" stroke="#132e65" stroke-width="1.5"></path><path d="M243.14 348.68L201.04 551.51" stroke="#132e65" stroke-width="1.5"></path><path d="M243.14 348.68L82.47 512.78" stroke="#132e65" stroke-width="1.5"></path><path d="M243.14 348.68L516.05 356.22" stroke="#132e65" stroke-width="1.5"></path><path d="M201.04 551.51L201.04 551.51" stroke="#132e65" stroke-width="1.5"></path><path d="M201.04 551.51L258.74 667.92" stroke="#132e65" stroke-width="1.5"></path><path d="M258.74 667.92L258.74 667.92" stroke="#132e65" stroke-width="1.5"></path><path d="M258.74 667.92L366.58 663.53" stroke="#132e65" stroke-width="1.5"></path><path d="M258.74 667.92L340.31 520.01" stroke="#132e65" stroke-width="1.5"></path><path d="M258.74 667.92L60.97 642.39" stroke="#132e65" stroke-width="1.5"></path><path d="M373.82 397.33L373.82 397.33" stroke="#132e65" stroke-width="1.5"></path><path d="M373.82 397.33L340.31 520.01" stroke="#132e65" stroke-width="1.5"></path><path d="M340.31 520.01L340.31 520.01" stroke="#132e65" stroke-width="1.5"></path><path d="M340.31 520.01L201.04 551.51" stroke="#132e65" stroke-width="1.5"></path><path d="M340.31 520.01L366.58 663.53" stroke="#132e65" stroke-width="1.5"></path><path d="M340.31 520.01L500.61 508.5" stroke="#132e65" stroke-width="1.5"></path><path d="M366.58 663.53L366.58 663.53" stroke="#132e65" stroke-width="1.5"></path><path d="M366.58 663.53L558.9 675.01" stroke="#132e65" stroke-width="1.5"></path><path d="M366.58 663.53L201.04 551.51" stroke="#132e65" stroke-width="1.5"></path><path d="M366.58 663.53L500.61 508.5" stroke="#132e65" stroke-width="1.5"></path><path d="M516.05 356.22L516.05 356.22" stroke="#132e65" stroke-width="1.5"></path><path d="M516.05 356.22L373.82 397.33" stroke="#132e65" stroke-width="1.5"></path><path d="M516.05 356.22L500.61 508.5" stroke="#132e65" stroke-width="1.5"></path><path d="M516.05 356.22L699.04 354.85" stroke="#132e65" stroke-width="1.5"></path><path d="M516.05 356.22L673.5 512.17" stroke="#132e65" stroke-width="1.5"></path><path d="M516.05 356.22L340.31 520.01" stroke="#132e65" stroke-width="1.5"></path><path d="M500.61 508.5L500.61 508.5" stroke="#132e65" stroke-width="1.5"></path><path d="M500.61 508.5L373.82 397.33" stroke="#132e65" stroke-width="1.5"></path><path d="M500.61 508.5L673.5 512.17" stroke="#132e65" stroke-width="1.5"></path><path d="M500.61 508.5L558.9 675.01" stroke="#132e65" stroke-width="1.5"></path><path d="M558.9 675.01L558.9 675.01" stroke="#132e65" stroke-width="1.5"></path><path d="M558.9 675.01L706.87 688.81" stroke="#132e65" stroke-width="1.5"></path><path d="M699.04 354.85L699.04 354.85" stroke="#132e65" stroke-width="1.5"></path><path d="M699.04 354.85L673.5 512.17" stroke="#132e65" stroke-width="1.5"></path><path d="M699.04 354.85L825.54 226.13" stroke="#132e65" stroke-width="1.5"></path><path d="M699.04 354.85L792.11 520.55" stroke="#132e65" stroke-width="1.5"></path><path d="M699.04 354.85L500.61 508.5" stroke="#132e65" stroke-width="1.5"></path><path d="M699.04 354.85L954.85 368.56" stroke="#132e65" stroke-width="1.5"></path><path d="M673.5 512.17L673.5 512.17" stroke="#132e65" stroke-width="1.5"></path><path d="M673.5 512.17L792.11 520.55" stroke="#132e65" stroke-width="1.5"></path><path d="M673.5 512.17L706.87 688.81" stroke="#132e65" stroke-width="1.5"></path><path d="M673.5 512.17L558.9 675.01" stroke="#132e65" stroke-width="1.5"></path><path d="M706.87 688.81L706.87 688.81" stroke="#132e65" stroke-width="1.5"></path><path d="M706.87 688.81L840.09 672.1" stroke="#132e65" stroke-width="1.5"></path><path d="M827.3 108.24L827.3 108.24" stroke="#132e65" stroke-width="1.5"></path><path d="M827.3 108.24L825.54 226.13" stroke="#132e65" stroke-width="1.5"></path><path d="M827.3 108.24L965.2 198.58" stroke="#132e65" stroke-width="1.5"></path><path d="M827.3 108.24L992.8 66.79" stroke="#132e65" stroke-width="1.5"></path><path d="M827.3 108.24L962.93 -65.47" stroke="#132e65" stroke-width="1.5"></path><path d="M825.54 226.13L825.54 226.13" stroke="#132e65" stroke-width="1.5"></path><path d="M825.54 226.13L965.2 198.58" stroke="#132e65" stroke-width="1.5"></path><path d="M825.54 226.13L954.85 368.56" stroke="#132e65" stroke-width="1.5"></path><path d="M792.11 520.55L792.11 520.55" stroke="#132e65" stroke-width="1.5"></path><path d="M792.11 520.55L840.09 672.1" stroke="#132e65" stroke-width="1.5"></path><path d="M792.11 520.55L706.87 688.81" stroke="#132e65" stroke-width="1.5"></path><path d="M840.09 672.1L840.09 672.1" stroke="#132e65" stroke-width="1.5"></path><path d="M840.09 672.1L992.41 708.7" stroke="#132e65" stroke-width="1.5"></path><path d="M962.93 -65.47L962.93 -65.47" stroke="#132e65" stroke-width="1.5"></path><path d="M962.93 -65.47L992.8 66.79" stroke="#132e65" stroke-width="1.5"></path><path d="M962.93 -65.47L1156.75 -61.64" stroke="#132e65" stroke-width="1.5"></path><path d="M992.8 66.79L992.8 66.79" stroke="#132e65" stroke-width="1.5"></path><path d="M992.8 66.79L965.2 198.58" stroke="#132e65" stroke-width="1.5"></path><path d="M992.8 66.79L1124.84 95.96" stroke="#132e65" stroke-width="1.5"></path><path d="M992.8 66.79L1114.13 227.06" stroke="#132e65" stroke-width="1.5"></path><path d="M992.8 66.79L1156.75 -61.64" stroke="#132e65" stroke-width="1.5"></path><path d="M965.2 198.58L965.2 198.58" stroke="#132e65" stroke-width="1.5"></path><path d="M954.85 368.56L954.85 368.56" stroke="#132e65" stroke-width="1.5"></path><path d="M954.85 368.56L1116.08 394.69" stroke="#132e65" stroke-width="1.5"></path><path d="M954.85 368.56L965.2 198.58" stroke="#132e65" stroke-width="1.5"></path><path d="M954.85 368.56L1096.88 494.56" stroke="#132e65" stroke-width="1.5"></path><path d="M954.85 368.56L1001.69 555.07" stroke="#132e65" stroke-width="1.5"></path><path d="M1001.69 555.07L1001.69 555.07" stroke="#132e65" stroke-width="1.5"></path><path d="M1001.69 555.07L1096.88 494.56" stroke="#132e65" stroke-width="1.5"></path><path d="M1001.69 555.07L992.41 708.7" stroke="#132e65" stroke-width="1.5"></path><path d="M992.41 708.7L992.41 708.7" stroke="#132e65" stroke-width="1.5"></path><path d="M992.41 708.7L1122.97 696.07" stroke="#132e65" stroke-width="1.5"></path><path d="M992.41 708.7L1096.88 494.56" stroke="#132e65" stroke-width="1.5"></path><path d="M992.41 708.7L1262.18 689.59" stroke="#132e65" stroke-width="1.5"></path><path d="M992.41 708.7L792.11 520.55" stroke="#132e65" stroke-width="1.5"></path><path d="M1156.75 -61.64L1156.75 -61.64" stroke="#132e65" stroke-width="1.5"></path><path d="M1156.75 -61.64L1291.48 -38.01" stroke="#132e65" stroke-width="1.5"></path><path d="M1156.75 -61.64L1124.84 95.96" stroke="#132e65" stroke-width="1.5"></path><path d="M1124.84 95.96L1124.84 95.96" stroke="#132e65" stroke-width="1.5"></path><path d="M1124.84 95.96L1114.13 227.06" stroke="#132e65" stroke-width="1.5"></path><path d="M1114.13 227.06L1114.13 227.06" stroke="#132e65" stroke-width="1.5"></path><path d="M1114.13 227.06L965.2 198.58" stroke="#132e65" stroke-width="1.5"></path><path d="M1114.13 227.06L1116.08 394.69" stroke="#132e65" stroke-width="1.5"></path><path d="M1114.13 227.06L954.85 368.56" stroke="#132e65" stroke-width="1.5"></path><path d="M1114.13 227.06L1300.79 104.32" stroke="#132e65" stroke-width="1.5"></path><path d="M1116.08 394.69L1116.08 394.69" stroke="#132e65" stroke-width="1.5"></path><path d="M1116.08 394.69L1096.88 494.56" stroke="#132e65" stroke-width="1.5"></path><path d="M1096.88 494.56L1096.88 494.56" stroke="#132e65" stroke-width="1.5"></path><path d="M1096.88 494.56L1290.99 516.5" stroke="#132e65" stroke-width="1.5"></path><path d="M1096.88 494.56L1122.97 696.07" stroke="#132e65" stroke-width="1.5"></path><path d="M1122.97 696.07L1122.97 696.07" stroke="#132e65" stroke-width="1.5"></path><path d="M1122.97 696.07L1262.18 689.59" stroke="#132e65" stroke-width="1.5"></path><path d="M1122.97 696.07L1001.69 555.07" stroke="#132e65" stroke-width="1.5"></path><path d="M1122.97 696.07L1290.99 516.5" stroke="#132e65" stroke-width="1.5"></path><path d="M1291.48 -38.01L1291.48 -38.01" stroke="#132e65" stroke-width="1.5"></path><path d="M1291.48 -38.01L1407.54 -105.58" stroke="#132e65" stroke-width="1.5"></path><path d="M1291.48 -38.01L1300.79 104.32" stroke="#132e65" stroke-width="1.5"></path><path d="M1300.79 104.32L1300.79 104.32" stroke="#132e65" stroke-width="1.5"></path><path d="M1300.79 104.32L1419.62 90.46" stroke="#132e65" stroke-width="1.5"></path><path d="M1300.79 104.32L1124.84 95.96" stroke="#132e65" stroke-width="1.5"></path><path d="M1300.79 104.32L1432.23 224.66" stroke="#132e65" stroke-width="1.5"></path><path d="M1300.79 104.32L1156.75 -61.64" stroke="#132e65" stroke-width="1.5"></path><path d="M1310.63 363.69L1310.63 363.69" stroke="#132e65" stroke-width="1.5"></path><path d="M1310.63 363.69L1453.07 378.56" stroke="#132e65" stroke-width="1.5"></path><path d="M1310.63 363.69L1290.99 516.5" stroke="#132e65" stroke-width="1.5"></path><path d="M1310.63 363.69L1432.23 224.66" stroke="#132e65" stroke-width="1.5"></path><path d="M1310.63 363.69L1116.08 394.69" stroke="#132e65" stroke-width="1.5"></path><path d="M1290.99 516.5L1290.99 516.5" stroke="#132e65" stroke-width="1.5"></path><path d="M1290.99 516.5L1445.1 562.19" stroke="#132e65" stroke-width="1.5"></path><path d="M1262.18 689.59L1262.18 689.59" stroke="#132e65" stroke-width="1.5"></path><path d="M1262.18 689.59L1408.41 688.3" stroke="#132e65" stroke-width="1.5"></path><path d="M1407.54 -105.58L1407.54 -105.58" stroke="#132e65" stroke-width="1.5"></path><path d="M1407.54 -105.58L1602.48 -91.47" stroke="#132e65" stroke-width="1.5"></path><path d="M1407.54 -105.58L1419.62 90.46" stroke="#132e65" stroke-width="1.5"></path><path d="M1407.54 -105.58L1300.79 104.32" stroke="#132e65" stroke-width="1.5"></path><path d="M1407.54 -105.58L1565.5 78.9" stroke="#132e65" stroke-width="1.5"></path><path d="M1419.62 90.46L1419.62 90.46" stroke="#132e65" stroke-width="1.5"></path><path d="M1419.62 90.46L1432.23 224.66" stroke="#132e65" stroke-width="1.5"></path><path d="M1419.62 90.46L1565.5 78.9" stroke="#132e65" stroke-width="1.5"></path><path d="M1432.23 224.66L1432.23 224.66" stroke="#132e65" stroke-width="1.5"></path><path d="M1432.23 224.66L1582.6 245.23" stroke="#132e65" stroke-width="1.5"></path><path d="M1432.23 224.66L1453.07 378.56" stroke="#132e65" stroke-width="1.5"></path><path d="M1432.23 224.66L1584.42 340.88" stroke="#132e65" stroke-width="1.5"></path><path d="M1453.07 378.56L1453.07 378.56" stroke="#132e65" stroke-width="1.5"></path><path d="M1453.07 378.56L1584.42 340.88" stroke="#132e65" stroke-width="1.5"></path><path d="M1453.07 378.56L1445.1 562.19" stroke="#132e65" stroke-width="1.5"></path><path d="M1453.07 378.56L1582.6 245.23" stroke="#132e65" stroke-width="1.5"></path><path d="M1445.1 562.19L1445.1 562.19" stroke="#132e65" stroke-width="1.5"></path><path d="M1445.1 562.19L1408.41 688.3" stroke="#132e65" stroke-width="1.5"></path><path d="M1445.1 562.19L1584.98 661.19" stroke="#132e65" stroke-width="1.5"></path><path d="M1445.1 562.19L1262.18 689.59" stroke="#132e65" stroke-width="1.5"></path><path d="M1445.1 562.19L1310.63 363.69" stroke="#132e65" stroke-width="1.5"></path><path d="M1408.41 688.3L1408.41 688.3" stroke="#132e65" stroke-width="1.5"></path><path d="M1408.41 688.3L1584.98 661.19" stroke="#132e65" stroke-width="1.5"></path><path d="M1408.41 688.3L1290.99 516.5" stroke="#132e65" stroke-width="1.5"></path><path d="M1408.41 688.3L1122.97 696.07" stroke="#132e65" stroke-width="1.5"></path><path d="M1602.48 -91.47L1602.48 -91.47" stroke="#132e65" stroke-width="1.5"></path><path d="M1602.48 -91.47L1565.5 78.9" stroke="#132e65" stroke-width="1.5"></path><path d="M1602.48 -91.47L1419.62 90.46" stroke="#132e65" stroke-width="1.5"></path><path d="M1602.48 -91.47L1291.48 -38.01" stroke="#132e65" stroke-width="1.5"></path><path d="M1602.48 -91.47L1582.6 245.23" stroke="#132e65" stroke-width="1.5"></path><path d="M1565.5 78.9L1565.5 78.9" stroke="#132e65" stroke-width="1.5"></path><path d="M1565.5 78.9L1582.6 245.23" stroke="#132e65" stroke-width="1.5"></path><path d="M1582.6 245.23L1582.6 245.23" stroke="#132e65" stroke-width="1.5"></path><path d="M1582.6 245.23L1584.42 340.88" stroke="#132e65" stroke-width="1.5"></path><path d="M1584.42 340.88L1584.42 340.88" stroke="#132e65" stroke-width="1.5"></path><path d="M1584.98 661.19L1584.98 661.19" stroke="#132e65" stroke-width="1.5"></path><path d="M1584.98 661.19L1453.07 378.56" stroke="#132e65" stroke-width="1.5"></path><path d="M1584.98 661.19L1584.42 340.88" stroke="#132e65" stroke-width="1.5"></path><path d="M1584.98 661.19L1262.18 689.59" stroke="#132e65" stroke-width="1.5"></path><path d="M1584.98 661.19L1290.99 516.5" stroke="#132e65" stroke-width="1.5"></path><circle r="5" cx="-78.92" cy="343.03" fill="#132e65"></circle><circle r="5" cx="-88.34" cy="552.96" fill="#132e65"></circle><circle r="5" cx="-69.57" cy="695.64" fill="#132e65"></circle><circle r="5" cx="50.7" cy="378.06" fill="#132e65"></circle><circle r="5" cx="82.47" cy="512.78" fill="#132e65"></circle><circle r="5" cx="60.97" cy="642.39" fill="#132e65"></circle><circle r="5" cx="243.14" cy="348.68" fill="#132e65"></circle><circle r="5" cx="201.04" cy="551.51" fill="#132e65"></circle><circle r="5" cx="258.74" cy="667.92" fill="#132e65"></circle><circle r="5" cx="373.82" cy="397.33" fill="#132e65"></circle><circle r="5" cx="340.31" cy="520.01" fill="#132e65"></circle><circle r="5" cx="366.58" cy="663.53" fill="#132e65"></circle><circle r="5" cx="516.05" cy="356.22" fill="#132e65"></circle><circle r="5" cx="500.61" cy="508.5" fill="#132e65"></circle><circle r="5" cx="558.9" cy="675.01" fill="#132e65"></circle><circle r="5" cx="699.04" cy="354.85" fill="#132e65"></circle><circle r="5" cx="673.5" cy="512.17" fill="#132e65"></circle><circle r="5" cx="706.87" cy="688.81" fill="#132e65"></circle><circle r="5" cx="827.3" cy="108.24" fill="#132e65"></circle><circle r="5" cx="825.54" cy="226.13" fill="#132e65"></circle><circle r="5" cx="792.11" cy="520.55" fill="#132e65"></circle><circle r="5" cx="840.09" cy="672.1" fill="#132e65"></circle><circle r="5" cx="962.93" cy="-65.47" fill="#132e65"></circle><circle r="5" cx="992.8" cy="66.79" fill="#132e65"></circle><circle r="5" cx="965.2" cy="198.58" fill="#132e65"></circle><circle r="5" cx="954.85" cy="368.56" fill="#132e65"></circle><circle r="5" cx="1001.69" cy="555.07" fill="#132e65"></circle><circle r="5" cx="992.41" cy="708.7" fill="#132e65"></circle><circle r="5" cx="1156.75" cy="-61.64" fill="#132e65"></circle><circle r="5" cx="1124.84" cy="95.96" fill="#132e65"></circle><circle r="5" cx="1114.13" cy="227.06" fill="#132e65"></circle><circle r="5" cx="1116.08" cy="394.69" fill="#132e65"></circle><circle r="5" cx="1096.88" cy="494.56" fill="#132e65"></circle><circle r="5" cx="1122.97" cy="696.07" fill="#132e65"></circle><circle r="5" cx="1291.48" cy="-38.01" fill="#132e65"></circle><circle r="5" cx="1300.79" cy="104.32" fill="#132e65"></circle><circle r="5" cx="1310.63" cy="363.69" fill="#132e65"></circle><circle r="5" cx="1290.99" cy="516.5" fill="#132e65"></circle><circle r="5" cx="1262.18" cy="689.59" fill="#132e65"></circle><circle r="5" cx="1407.54" cy="-105.58" fill="#132e65"></circle><circle r="5" cx="1419.62" cy="90.46" fill="#132e65"></circle><circle r="5" cx="1432.23" cy="224.66" fill="#132e65"></circle><circle r="5" cx="1453.07" cy="378.56" fill="#132e65"></circle><circle r="5" cx="1445.1" cy="562.19" fill="#132e65"></circle><circle r="5" cx="1408.41" cy="688.3" fill="#132e65"></circle><circle r="5" cx="1602.48" cy="-91.47" fill="#132e65"></circle><circle r="5" cx="1565.5" cy="78.9" fill="#132e65"></circle><circle r="5" cx="1582.6" cy="245.23" fill="#132e65"></circle><circle r="5" cx="1584.42" cy="340.88" fill="#132e65"></circle><circle r="5" cx="1584.98" cy="661.19" fill="#132e65"></circle><path d="M969.96 675L969.96 675" stroke="hsl(228.5, 77.2%, 51.5%)" stroke-width="1.5"></path><path d="M969.96 675L1101.57 701.37" stroke="hsl(228.5, 77.2%, 51.5%)" stroke-width="1.5"></path><path d="M969.96 675L834.8 650.15" stroke="hsl(228.5, 77.2%, 51.5%)" stroke-width="1.5"></path><path d="M969.96 675L982.68 519.24" stroke="hsl(228.5, 77.2%, 51.5%)" stroke-width="1.5"></path><path d="M969.96 675L1118.33 514.48" stroke="hsl(228.5, 77.2%, 51.5%)" stroke-width="1.5"></path><path d="M969.96 675L787.68 523.91" stroke="hsl(228.5, 77.2%, 51.5%)" stroke-width="1.5"></path><path d="M969.96 675L940.81 403.59" stroke="hsl(228.5, 77.2%, 51.5%)" stroke-width="1.5"></path><path d="M1140.63 371.21L1140.63 371.21" stroke="hsl(228.5, 77.2%, 51.5%)" stroke-width="1.5"></path><path d="M1140.63 371.21L1159.99 238.64" stroke="hsl(228.5, 77.2%, 51.5%)" stroke-width="1.5"></path><path d="M1140.63 371.21L1118.33 514.48" stroke="hsl(228.5, 77.2%, 51.5%)" stroke-width="1.5"></path><path d="M1140.63 371.21L1005.21 228.92" stroke="hsl(228.5, 77.2%, 51.5%)" stroke-width="1.5"></path><path d="M1140.63 371.21L940.81 403.59" stroke="hsl(228.5, 77.2%, 51.5%)" stroke-width="1.5"></path><path d="M1140.63 371.21L1309.68 244.7" stroke="hsl(228.5, 77.2%, 51.5%)" stroke-width="1.5"></path><path d="M1101.57 701.37L1101.57 701.37" stroke="hsl(228.5, 77.2%, 51.5%)" stroke-width="1.5"></path><path d="M1101.57 701.37L1118.33 514.48" stroke="hsl(228.5, 77.2%, 51.5%)" stroke-width="1.5"></path><path d="M1101.57 701.37L1291.73 685.05" stroke="hsl(228.5, 77.2%, 51.5%)" stroke-width="1.5"></path><path d="M1101.57 701.37L982.68 519.24" stroke="hsl(228.5, 77.2%, 51.5%)" stroke-width="1.5"></path><path d="M1101.57 701.37L1281.11 558.06" stroke="hsl(228.5, 77.2%, 51.5%)" stroke-width="1.5"></path><path d="M1425.19 520.88L1425.19 520.88" stroke="hsl(228.5, 77.2%, 51.5%)" stroke-width="1.5"></path><path d="M1425.19 520.88L1571.76 509.7" stroke="hsl(228.5, 77.2%, 51.5%)" stroke-width="1.5"></path><path d="M1425.19 520.88L1281.11 558.06" stroke="hsl(228.5, 77.2%, 51.5%)" stroke-width="1.5"></path><path d="M1425.19 520.88L1390.42 367.47" stroke="hsl(228.5, 77.2%, 51.5%)" stroke-width="1.5"></path><path d="M1425.19 520.88L1421.99 703.18" stroke="hsl(228.5, 77.2%, 51.5%)" stroke-width="1.5"></path><path d="M1425.19 520.88L1554.99 379.98" stroke="hsl(228.5, 77.2%, 51.5%)" stroke-width="1.5"></path><path d="M-89.87 562.24L-89.87 562.24" stroke="hsl(228.5, 77.2%, 51.5%)" stroke-width="1.5"></path><path d="M-89.87 562.24L-99.4 656.19" stroke="hsl(228.5, 77.2%, 51.5%)" stroke-width="1.5"></path><path d="M-89.87 562.24L80.89 641.65" stroke="hsl(228.5, 77.2%, 51.5%)" stroke-width="1.5"></path><path d="M-99.4 656.19L-99.4 656.19" stroke="hsl(228.5, 77.2%, 51.5%)" stroke-width="1.5"></path><path d="M-99.4 656.19L80.89 641.65" stroke="hsl(228.5, 77.2%, 51.5%)" stroke-width="1.5"></path><path d="M-99.4 656.19L107.75 532.57" stroke="hsl(228.5, 77.2%, 51.5%)" stroke-width="1.5"></path><path d="M-99.4 656.19L215.75 542.15" stroke="hsl(228.5, 77.2%, 51.5%)" stroke-width="1.5"></path><path d="M-99.4 656.19L339.37 658.94" stroke="hsl(228.5, 77.2%, 51.5%)" stroke-width="1.5"></path><path d="M107.75 532.57L107.75 532.57" stroke="hsl(228.5, 77.2%, 51.5%)" stroke-width="1.5"></path><path d="M107.75 532.57L215.75 542.15" stroke="hsl(228.5, 77.2%, 51.5%)" stroke-width="1.5"></path><path d="M80.89 641.65L80.89 641.65" stroke="hsl(228.5, 77.2%, 51.5%)" stroke-width="1.5"></path><path d="M80.89 641.65L107.75 532.57" stroke="hsl(228.5, 77.2%, 51.5%)" stroke-width="1.5"></path><path d="M80.89 641.65L215.75 542.15" stroke="hsl(228.5, 77.2%, 51.5%)" stroke-width="1.5"></path><path d="M80.89 641.65L339.37 658.94" stroke="hsl(228.5, 77.2%, 51.5%)" stroke-width="1.5"></path><path d="M215.75 542.15L215.75 542.15" stroke="hsl(228.5, 77.2%, 51.5%)" stroke-width="1.5"></path><path d="M215.75 542.15L348.73 554.66" stroke="hsl(228.5, 77.2%, 51.5%)" stroke-width="1.5"></path><path d="M215.75 542.15L339.37 658.94" stroke="hsl(228.5, 77.2%, 51.5%)" stroke-width="1.5"></path><path d="M215.75 542.15L-89.87 562.24" stroke="hsl(228.5, 77.2%, 51.5%)" stroke-width="1.5"></path><path d="M348.73 554.66L348.73 554.66" stroke="hsl(228.5, 77.2%, 51.5%)" stroke-width="1.5"></path><path d="M348.73 554.66L339.37 658.94" stroke="hsl(228.5, 77.2%, 51.5%)" stroke-width="1.5"></path><path d="M339.37 658.94L339.37 658.94" stroke="hsl(228.5, 77.2%, 51.5%)" stroke-width="1.5"></path><path d="M339.37 658.94L107.75 532.57" stroke="hsl(228.5, 77.2%, 51.5%)" stroke-width="1.5"></path><path d="M339.37 658.94L650.91 698.65" stroke="hsl(228.5, 77.2%, 51.5%)" stroke-width="1.5"></path><path d="M339.37 658.94L654.21 496" stroke="hsl(228.5, 77.2%, 51.5%)" stroke-width="1.5"></path><path d="M654.21 496L654.21 496" stroke="hsl(228.5, 77.2%, 51.5%)" stroke-width="1.5"></path><path d="M654.21 496L787.68 523.91" stroke="hsl(228.5, 77.2%, 51.5%)" stroke-width="1.5"></path><path d="M654.21 496L650.91 698.65" stroke="hsl(228.5, 77.2%, 51.5%)" stroke-width="1.5"></path><path d="M654.21 496L845.23 392.8" stroke="hsl(228.5, 77.2%, 51.5%)" stroke-width="1.5"></path><path d="M654.21 496L834.8 650.15" stroke="hsl(228.5, 77.2%, 51.5%)" stroke-width="1.5"></path><path d="M654.21 496L940.81 403.59" stroke="hsl(228.5, 77.2%, 51.5%)" stroke-width="1.5"></path><path d="M654.21 496L348.73 554.66" stroke="hsl(228.5, 77.2%, 51.5%)" stroke-width="1.5"></path><path d="M650.91 698.65L650.91 698.65" stroke="hsl(228.5, 77.2%, 51.5%)" stroke-width="1.5"></path><path d="M650.91 698.65L834.8 650.15" stroke="hsl(228.5, 77.2%, 51.5%)" stroke-width="1.5"></path><path d="M650.91 698.65L787.68 523.91" stroke="hsl(228.5, 77.2%, 51.5%)" stroke-width="1.5"></path><path d="M845.23 392.8L845.23 392.8" stroke="hsl(228.5, 77.2%, 51.5%)" stroke-width="1.5"></path><path d="M845.23 392.8L940.81 403.59" stroke="hsl(228.5, 77.2%, 51.5%)" stroke-width="1.5"></path><path d="M845.23 392.8L787.68 523.91" stroke="hsl(228.5, 77.2%, 51.5%)" stroke-width="1.5"></path><path d="M787.68 523.91L787.68 523.91" stroke="hsl(228.5, 77.2%, 51.5%)" stroke-width="1.5"></path><path d="M787.68 523.91L834.8 650.15" stroke="hsl(228.5, 77.2%, 51.5%)" stroke-width="1.5"></path><path d="M787.68 523.91L940.81 403.59" stroke="hsl(228.5, 77.2%, 51.5%)" stroke-width="1.5"></path><path d="M834.8 650.15L834.8 650.15" stroke="hsl(228.5, 77.2%, 51.5%)" stroke-width="1.5"></path><path d="M834.8 650.15L982.68 519.24" stroke="hsl(228.5, 77.2%, 51.5%)" stroke-width="1.5"></path><path d="M1005.21 228.92L1005.21 228.92" stroke="hsl(228.5, 77.2%, 51.5%)" stroke-width="1.5"></path><path d="M1005.21 228.92L1159.99 238.64" stroke="hsl(228.5, 77.2%, 51.5%)" stroke-width="1.5"></path><path d="M1005.21 228.92L940.81 403.59" stroke="hsl(228.5, 77.2%, 51.5%)" stroke-width="1.5"></path><path d="M1005.21 228.92L845.23 392.8" stroke="hsl(228.5, 77.2%, 51.5%)" stroke-width="1.5"></path><path d="M1005.21 228.92L982.68 519.24" stroke="hsl(228.5, 77.2%, 51.5%)" stroke-width="1.5"></path><path d="M940.81 403.59L940.81 403.59" stroke="hsl(228.5, 77.2%, 51.5%)" stroke-width="1.5"></path><path d="M940.81 403.59L982.68 519.24" stroke="hsl(228.5, 77.2%, 51.5%)" stroke-width="1.5"></path><path d="M982.68 519.24L982.68 519.24" stroke="hsl(228.5, 77.2%, 51.5%)" stroke-width="1.5"></path><path d="M982.68 519.24L1118.33 514.48" stroke="hsl(228.5, 77.2%, 51.5%)" stroke-width="1.5"></path><path d="M982.68 519.24L845.23 392.8" stroke="hsl(228.5, 77.2%, 51.5%)" stroke-width="1.5"></path><path d="M982.68 519.24L787.68 523.91" stroke="hsl(228.5, 77.2%, 51.5%)" stroke-width="1.5"></path><path d="M1158.21 -92.5L1158.21 -92.5" stroke="hsl(228.5, 77.2%, 51.5%)" stroke-width="1.5"></path><path d="M1158.21 -92.5L1244.57 -93.77" stroke="hsl(228.5, 77.2%, 51.5%)" stroke-width="1.5"></path><path d="M1158.21 -92.5L1300.11 96" stroke="hsl(228.5, 77.2%, 51.5%)" stroke-width="1.5"></path><path d="M1158.21 -92.5L1416.72 -111.43" stroke="hsl(228.5, 77.2%, 51.5%)" stroke-width="1.5"></path><path d="M1158.21 -92.5L1414.59 65.97" stroke="hsl(228.5, 77.2%, 51.5%)" stroke-width="1.5"></path><path d="M1158.21 -92.5L1159.99 238.64" stroke="hsl(228.5, 77.2%, 51.5%)" stroke-width="1.5"></path><path d="M1159.99 238.64L1159.99 238.64" stroke="hsl(228.5, 77.2%, 51.5%)" stroke-width="1.5"></path><path d="M1159.99 238.64L1309.68 244.7" stroke="hsl(228.5, 77.2%, 51.5%)" stroke-width="1.5"></path><path d="M1159.99 238.64L1300.11 96" stroke="hsl(228.5, 77.2%, 51.5%)" stroke-width="1.5"></path><path d="M1118.33 514.48L1118.33 514.48" stroke="hsl(228.5, 77.2%, 51.5%)" stroke-width="1.5"></path><path d="M1118.33 514.48L1281.11 558.06" stroke="hsl(228.5, 77.2%, 51.5%)" stroke-width="1.5"></path><path d="M1244.57 -93.77L1244.57 -93.77" stroke="hsl(228.5, 77.2%, 51.5%)" stroke-width="1.5"></path><path d="M1244.57 -93.77L1416.72 -111.43" stroke="hsl(228.5, 77.2%, 51.5%)" stroke-width="1.5"></path><path d="M1244.57 -93.77L1300.11 96" stroke="hsl(228.5, 77.2%, 51.5%)" stroke-width="1.5"></path><path d="M1244.57 -93.77L1414.59 65.97" stroke="hsl(228.5, 77.2%, 51.5%)" stroke-width="1.5"></path><path d="M1244.57 -93.77L1159.99 238.64" stroke="hsl(228.5, 77.2%, 51.5%)" stroke-width="1.5"></path><path d="M1300.11 96L1300.11 96" stroke="hsl(228.5, 77.2%, 51.5%)" stroke-width="1.5"></path><path d="M1300.11 96L1414.59 65.97" stroke="hsl(228.5, 77.2%, 51.5%)" stroke-width="1.5"></path><path d="M1300.11 96L1309.68 244.7" stroke="hsl(228.5, 77.2%, 51.5%)" stroke-width="1.5"></path><path d="M1300.11 96L1416.72 -111.43" stroke="hsl(228.5, 77.2%, 51.5%)" stroke-width="1.5"></path><path d="M1309.68 244.7L1309.68 244.7" stroke="hsl(228.5, 77.2%, 51.5%)" stroke-width="1.5"></path><path d="M1309.68 244.7L1390.42 367.47" stroke="hsl(228.5, 77.2%, 51.5%)" stroke-width="1.5"></path><path d="M1309.68 244.7L1414.59 65.97" stroke="hsl(228.5, 77.2%, 51.5%)" stroke-width="1.5"></path><path d="M1281.11 558.06L1281.11 558.06" stroke="hsl(228.5, 77.2%, 51.5%)" stroke-width="1.5"></path><path d="M1281.11 558.06L1291.73 685.05" stroke="hsl(228.5, 77.2%, 51.5%)" stroke-width="1.5"></path><path d="M1281.11 558.06L1421.99 703.18" stroke="hsl(228.5, 77.2%, 51.5%)" stroke-width="1.5"></path><path d="M1291.73 685.05L1291.73 685.05" stroke="hsl(228.5, 77.2%, 51.5%)" stroke-width="1.5"></path><path d="M1291.73 685.05L1421.99 703.18" stroke="hsl(228.5, 77.2%, 51.5%)" stroke-width="1.5"></path><path d="M1291.73 685.05L1425.19 520.88" stroke="hsl(228.5, 77.2%, 51.5%)" stroke-width="1.5"></path><path d="M1291.73 685.05L1118.33 514.48" stroke="hsl(228.5, 77.2%, 51.5%)" stroke-width="1.5"></path><path d="M1291.73 685.05L1582.64 652.37" stroke="hsl(228.5, 77.2%, 51.5%)" stroke-width="1.5"></path><path d="M1416.72 -111.43L1416.72 -111.43" stroke="hsl(228.5, 77.2%, 51.5%)" stroke-width="1.5"></path><path d="M1416.72 -111.43L1414.59 65.97" stroke="hsl(228.5, 77.2%, 51.5%)" stroke-width="1.5"></path><path d="M1416.72 -111.43L1586.75 -56.48" stroke="hsl(228.5, 77.2%, 51.5%)" stroke-width="1.5"></path><path d="M1416.72 -111.43L1549.56 107.08" stroke="hsl(228.5, 77.2%, 51.5%)" stroke-width="1.5"></path><path d="M1414.59 65.97L1414.59 65.97" stroke="hsl(228.5, 77.2%, 51.5%)" stroke-width="1.5"></path><path d="M1414.59 65.97L1549.56 107.08" stroke="hsl(228.5, 77.2%, 51.5%)" stroke-width="1.5"></path><path d="M1390.42 367.47L1390.42 367.47" stroke="hsl(228.5, 77.2%, 51.5%)" stroke-width="1.5"></path><path d="M1390.42 367.47L1554.99 379.98" stroke="hsl(228.5, 77.2%, 51.5%)" stroke-width="1.5"></path><path d="M1421.99 703.18L1421.99 703.18" stroke="hsl(228.5, 77.2%, 51.5%)" stroke-width="1.5"></path><path d="M1421.99 703.18L1582.64 652.37" stroke="hsl(228.5, 77.2%, 51.5%)" stroke-width="1.5"></path><path d="M1421.99 703.18L1571.76 509.7" stroke="hsl(228.5, 77.2%, 51.5%)" stroke-width="1.5"></path><path d="M1421.99 703.18L1101.57 701.37" stroke="hsl(228.5, 77.2%, 51.5%)" stroke-width="1.5"></path><path d="M1586.75 -56.48L1586.75 -56.48" stroke="hsl(228.5, 77.2%, 51.5%)" stroke-width="1.5"></path><path d="M1586.75 -56.48L1549.56 107.08" stroke="hsl(228.5, 77.2%, 51.5%)" stroke-width="1.5"></path><path d="M1586.75 -56.48L1414.59 65.97" stroke="hsl(228.5, 77.2%, 51.5%)" stroke-width="1.5"></path><path d="M1586.75 -56.48L1583.36 228.97" stroke="hsl(228.5, 77.2%, 51.5%)" stroke-width="1.5"></path><path d="M1586.75 -56.48L1300.11 96" stroke="hsl(228.5, 77.2%, 51.5%)" stroke-width="1.5"></path><path d="M1586.75 -56.48L1244.57 -93.77" stroke="hsl(228.5, 77.2%, 51.5%)" stroke-width="1.5"></path><path d="M1549.56 107.08L1549.56 107.08" stroke="hsl(228.5, 77.2%, 51.5%)" stroke-width="1.5"></path><path d="M1549.56 107.08L1583.36 228.97" stroke="hsl(228.5, 77.2%, 51.5%)" stroke-width="1.5"></path><path d="M1549.56 107.08L1300.11 96" stroke="hsl(228.5, 77.2%, 51.5%)" stroke-width="1.5"></path><path d="M1583.36 228.97L1583.36 228.97" stroke="hsl(228.5, 77.2%, 51.5%)" stroke-width="1.5"></path><path d="M1583.36 228.97L1554.99 379.98" stroke="hsl(228.5, 77.2%, 51.5%)" stroke-width="1.5"></path><path d="M1554.99 379.98L1554.99 379.98" stroke="hsl(228.5, 77.2%, 51.5%)" stroke-width="1.5"></path><path d="M1554.99 379.98L1571.76 509.7" stroke="hsl(228.5, 77.2%, 51.5%)" stroke-width="1.5"></path><path d="M1571.76 509.7L1571.76 509.7" stroke="hsl(228.5, 77.2%, 51.5%)" stroke-width="1.5"></path><path d="M1571.76 509.7L1582.64 652.37" stroke="hsl(228.5, 77.2%, 51.5%)" stroke-width="1.5"></path><path d="M1582.64 652.37L1582.64 652.37" stroke="hsl(228.5, 77.2%, 51.5%)" stroke-width="1.5"></path><path d="M1582.64 652.37L1425.19 520.88" stroke="hsl(228.5, 77.2%, 51.5%)" stroke-width="1.5"></path><path d="M1582.64 652.37L1554.99 379.98" stroke="hsl(228.5, 77.2%, 51.5%)" stroke-width="1.5"></path><circle r="25" cx="969.96" cy="675" fill="url(&quot;#SvgjsRadialGradient1001&quot;)"></circle><circle r="25" cx="1140.63" cy="371.21" fill="url(&quot;#SvgjsRadialGradient1001&quot;)"></circle><circle r="25" cx="1101.57" cy="701.37" fill="url(&quot;#SvgjsRadialGradient1001&quot;)"></circle><circle r="25" cx="1425.19" cy="520.88" fill="url(&quot;#SvgjsRadialGradient1001&quot;)"></circle><circle r="5" cx="-89.87" cy="562.24" fill="#8b9ad9"></circle><circle r="5" cx="-99.4" cy="656.19" fill="#8b9ad9"></circle><circle r="5" cx="107.75" cy="532.57" fill="#8b9ad9"></circle><circle r="5" cx="80.89" cy="641.65" fill="#8b9ad9"></circle><circle r="5" cx="215.75" cy="542.15" fill="#8b9ad9"></circle><circle r="5" cx="348.73" cy="554.66" fill="#8b9ad9"></circle><circle r="5" cx="339.37" cy="658.94" fill="#8b9ad9"></circle><circle r="5" cx="654.21" cy="496" fill="#8b9ad9"></circle><circle r="5" cx="650.91" cy="698.65" fill="#8b9ad9"></circle><circle r="5" cx="845.23" cy="392.8" fill="#8b9ad9"></circle><circle r="5" cx="787.68" cy="523.91" fill="#8b9ad9"></circle><circle r="5" cx="834.8" cy="650.15" fill="#8b9ad9"></circle><circle r="5" cx="1005.21" cy="228.92" fill="#8b9ad9"></circle><circle r="5" cx="940.81" cy="403.59" fill="#8b9ad9"></circle><circle r="5" cx="982.68" cy="519.24" fill="#8b9ad9"></circle><circle r="5" cx="1158.21" cy="-92.5" fill="#8b9ad9"></circle><circle r="5" cx="1159.99" cy="238.64" fill="#8b9ad9"></circle><circle r="5" cx="1118.33" cy="514.48" fill="#8b9ad9"></circle><circle r="5" cx="1244.57" cy="-93.77" fill="#8b9ad9"></circle><circle r="5" cx="1300.11" cy="96" fill="#8b9ad9"></circle><circle r="5" cx="1309.68" cy="244.7" fill="#8b9ad9"></circle><circle r="5" cx="1281.11" cy="558.06" fill="#8b9ad9"></circle><circle r="5" cx="1291.73" cy="685.05" fill="#8b9ad9"></circle><circle r="5" cx="1416.72" cy="-111.43" fill="#8b9ad9"></circle><circle r="5" cx="1414.59" cy="65.97" fill="#8b9ad9"></circle><circle r="5" cx="1390.42" cy="367.47" fill="#8b9ad9"></circle><circle r="5" cx="1421.99" cy="703.18" fill="#8b9ad9"></circle><circle r="5" cx="1586.75" cy="-56.48" fill="#8b9ad9"></circle><circle r="5" cx="1549.56" cy="107.08" fill="#8b9ad9"></circle><circle r="5" cx="1583.36" cy="228.97" fill="#8b9ad9"></circle><circle r="5" cx="1554.99" cy="379.98" fill="#8b9ad9"></circle><circle r="5" cx="1571.76" cy="509.7" fill="#8b9ad9"></circle><circle r="5" cx="1582.64" cy="652.37" fill="#8b9ad9"></circle></g><defs><mask id="SvgjsMask1000"><rect width="1440" height="560" fill="#ffffff"></rect></mask><radialGradient id="SvgjsRadialGradient1001"><stop stop-color="#ffffff" offset="0.1"></stop><stop stop-color="#1735b3" offset="0.2"></stop><stop stop-color="rgba(23, 53, 179, 0)" offset="1"></stop></radialGradient></defs></svg>